<mxfile host="Electron" modified="2024-08-21T14:25:02.227Z" agent="Mozilla/5.0 (Windows NT 10.0; Win64; x64) AppleWebKit/537.36 (KHTML, like Gecko) draw.io/23.1.5 Chrome/120.0.6099.109 Electron/28.1.0 Safari/537.36" etag="M5Dl2nJV3jelBxUMmq8F" version="23.1.5" type="device">
  <diagram name="Page-1" id="e3a06f82-3646-2815-327d-82caf3d4e204">
    <mxGraphModel dx="1884" dy="2375" grid="1" gridSize="10" guides="1" tooltips="1" connect="1" arrows="1" fold="1" page="1" pageScale="1.5" pageWidth="1169" pageHeight="826" background="none" math="0" shadow="0">
      <root>
        <mxCell id="0" style=";html=1;" />
        <mxCell id="1" style=";html=1;" parent="0" />
        <mxCell id="TuXuVGZTP4xam0BgMUwH-31" value="" style="group" parent="1" vertex="1" connectable="0">
          <mxGeometry x="371.16" y="-1210" width="1050" height="260" as="geometry" />
        </mxCell>
        <mxCell id="TuXuVGZTP4xam0BgMUwH-5" value="&lt;b&gt;&lt;font style=&quot;font-size: 16px;&quot;&gt;Клиентские устройства&lt;/font&gt;&lt;/b&gt;" style="whiteSpace=wrap;html=1;fillColor=#dae8fc;fontSize=14;strokeColor=none;verticalAlign=top;" parent="TuXuVGZTP4xam0BgMUwH-31" vertex="1">
          <mxGeometry width="1030" height="190" as="geometry" />
        </mxCell>
        <mxCell id="TuXuVGZTP4xam0BgMUwH-6" value="Веб-интерфейс" style="verticalLabelPosition=top;aspect=fixed;html=1;verticalAlign=bottom;strokeColor=none;shape=mxgraph.citrix.laptop_2;fillColor=#66B2FF;gradientColor=#0066CC;fontSize=14;labelPosition=center;align=center;" parent="TuXuVGZTP4xam0BgMUwH-31" vertex="1">
          <mxGeometry x="263.96648044692716" y="72.5" width="116" height="86.5" as="geometry" />
        </mxCell>
        <mxCell id="TuXuVGZTP4xam0BgMUwH-7" value="Мобильное приложение" style="verticalLabelPosition=top;aspect=fixed;html=1;verticalAlign=bottom;strokeColor=none;shape=mxgraph.citrix.pda;fillColor=#66B2FF;gradientColor=#0066CC;fontSize=14;labelPosition=center;align=center;" parent="TuXuVGZTP4xam0BgMUwH-31" vertex="1">
          <mxGeometry x="898.9525139664803" y="72.5" width="30" height="61" as="geometry" />
        </mxCell>
        <mxCell id="TuXuVGZTP4xam0BgMUwH-8" value="Веб-интерфейс" style="verticalLabelPosition=top;aspect=fixed;html=1;verticalAlign=bottom;strokeColor=none;shape=mxgraph.citrix.desktop;fillColor=#66B2FF;gradientColor=#0066CC;fontSize=14;labelPosition=center;align=center;" parent="TuXuVGZTP4xam0BgMUwH-31" vertex="1">
          <mxGeometry x="59.39245810055864" y="72.5" width="89" height="98" as="geometry" />
        </mxCell>
        <mxCell id="TuXuVGZTP4xam0BgMUwH-9" value="Мобильное приложение" style="verticalLabelPosition=top;sketch=0;aspect=fixed;html=1;verticalAlign=bottom;strokeColor=none;align=center;outlineConnect=0;shape=mxgraph.citrix.tablet_2;labelPosition=center;fontSize=14;" parent="TuXuVGZTP4xam0BgMUwH-31" vertex="1">
          <mxGeometry x="648.8351396648045" y="72.5" width="82" height="86" as="geometry" />
        </mxCell>
        <mxCell id="vf5eU_Ha8vyt0Uo9wD5i-11" value="" style="html=1;shadow=0;dashed=0;align=center;verticalAlign=middle;shape=mxgraph.arrows2.arrow;dy=0.67;dx=20;notch=0;rotation=45;" vertex="1" parent="TuXuVGZTP4xam0BgMUwH-31">
          <mxGeometry x="188.83999999999997" y="220" width="55.86" height="20" as="geometry" />
        </mxCell>
        <mxCell id="vf5eU_Ha8vyt0Uo9wD5i-12" value="" style="html=1;shadow=0;dashed=0;align=center;verticalAlign=middle;shape=mxgraph.arrows2.arrow;dy=0.67;dx=20;notch=0;rotation=60;" vertex="1" parent="TuXuVGZTP4xam0BgMUwH-31">
          <mxGeometry x="298.84" y="210" width="55.86" height="20" as="geometry" />
        </mxCell>
        <mxCell id="vf5eU_Ha8vyt0Uo9wD5i-15" value="" style="html=1;shadow=0;dashed=0;align=center;verticalAlign=middle;shape=mxgraph.arrows2.arrow;dy=0.67;dx=20;notch=0;rotation=120;" vertex="1" parent="TuXuVGZTP4xam0BgMUwH-31">
          <mxGeometry x="638.8399999999999" y="210" width="55.86" height="20" as="geometry" />
        </mxCell>
        <mxCell id="vf5eU_Ha8vyt0Uo9wD5i-14" value="" style="html=1;shadow=0;dashed=0;align=center;verticalAlign=middle;shape=mxgraph.arrows2.arrow;dy=0.67;dx=20;notch=0;rotation=-225;" vertex="1" parent="TuXuVGZTP4xam0BgMUwH-31">
          <mxGeometry x="778.8399999999999" y="210" width="55.86" height="20" as="geometry" />
        </mxCell>
        <mxCell id="TuXuVGZTP4xam0BgMUwH-27" value="" style="group" parent="1" vertex="1" connectable="0">
          <mxGeometry x="747" y="-980" width="773.5" height="660" as="geometry" />
        </mxCell>
        <mxCell id="TuXuVGZTP4xam0BgMUwH-11" value="&lt;b&gt;&lt;font style=&quot;font-size: 16px;&quot;&gt;Серверная часть&lt;/font&gt;&lt;/b&gt;" style="whiteSpace=wrap;html=1;fillColor=#f5f5f5;fontSize=14;strokeColor=#666666;verticalAlign=top;glass=0;rounded=0;fontColor=#333333;" parent="TuXuVGZTP4xam0BgMUwH-27" vertex="1">
          <mxGeometry width="260" height="660" as="geometry" />
        </mxCell>
        <mxCell id="6a7d8f32e03d9370-14" value="Сервер приложений" style="verticalLabelPosition=bottom;aspect=fixed;html=1;verticalAlign=top;strokeColor=none;shape=mxgraph.citrix.xenclient_synchronizer;fillColor=#CCCCCC;gradientColor=#000000;gradientDirection=south;fontSize=14;labelPosition=center;align=center;" parent="TuXuVGZTP4xam0BgMUwH-27" vertex="1">
          <mxGeometry x="97.30999999999989" y="510.6786103078712" width="65.37407407407407" height="78.27685185185184" as="geometry" />
        </mxCell>
        <mxCell id="TuXuVGZTP4xam0BgMUwH-10" value="" style="verticalLabelPosition=bottom;aspect=fixed;html=1;verticalAlign=top;strokeColor=none;shape=mxgraph.citrix.router;fillColor=#66B2FF;gradientColor=#0066CC;fontSize=14;" parent="TuXuVGZTP4xam0BgMUwH-27" vertex="1">
          <mxGeometry x="106.34" y="355.2558886660485" width="47.31018518518518" height="31.39675925925926" as="geometry" />
        </mxCell>
        <mxCell id="TuXuVGZTP4xam0BgMUwH-21" style="edgeStyle=none;rounded=0;html=1;startSize=10;endSize=10;jettySize=auto;orthogonalLoop=1;fontSize=14;endArrow=none;endFill=0;strokeWidth=2;entryX=0.513;entryY=-0.029;entryDx=0;entryDy=0;entryPerimeter=0;exitX=0.518;exitY=0.921;exitDx=0;exitDy=0;exitPerimeter=0;" parent="TuXuVGZTP4xam0BgMUwH-27" source="TuXuVGZTP4xam0BgMUwH-10" target="6a7d8f32e03d9370-14" edge="1">
          <mxGeometry relative="1" as="geometry">
            <mxPoint x="131" y="338.46153846153845" as="sourcePoint" />
            <mxPoint x="52.5" y="69.38461538461539" as="targetPoint" />
            <Array as="points" />
          </mxGeometry>
        </mxCell>
        <mxCell id="vf5eU_Ha8vyt0Uo9wD5i-8" value="Компоненты для&lt;br style=&quot;border-color: var(--border-color); text-align: left;&quot;&gt;&lt;span style=&quot;text-align: left;&quot;&gt;обработки API-запросов,&lt;/span&gt;&lt;br style=&quot;border-color: var(--border-color); text-align: left;&quot;&gt;&lt;span style=&quot;text-align: left;&quot;&gt;логики приложений&lt;/span&gt;&lt;br style=&quot;border-color: var(--border-color); text-align: left;&quot;&gt;&lt;span style=&quot;text-align: left;&quot;&gt;и контроля доступа&lt;/span&gt;" style="rounded=0;whiteSpace=wrap;html=1;" vertex="1" parent="TuXuVGZTP4xam0BgMUwH-27">
          <mxGeometry x="45" y="40" width="170" height="70" as="geometry" />
        </mxCell>
        <mxCell id="TuXuVGZTP4xam0BgMUwH-30" value="" style="group" parent="TuXuVGZTP4xam0BgMUwH-27" vertex="1" connectable="0">
          <mxGeometry x="420" y="171" width="320" height="380" as="geometry" />
        </mxCell>
        <mxCell id="6a7d8f32e03d9370-61" value="&lt;b&gt;&lt;font style=&quot;font-size: 16px;&quot;&gt;Облачная инфраструктура&lt;/font&gt;&lt;/b&gt;" style="whiteSpace=wrap;html=1;fillColor=#f8cecc;fontSize=14;strokeColor=none;verticalAlign=top;" parent="TuXuVGZTP4xam0BgMUwH-30" vertex="1">
          <mxGeometry width="320" height="380" as="geometry" />
        </mxCell>
        <mxCell id="TuXuVGZTP4xam0BgMUwH-23" value="" style="verticalLabelPosition=bottom;sketch=0;aspect=fixed;html=1;verticalAlign=top;strokeColor=none;align=center;outlineConnect=0;shape=mxgraph.citrix.cloud;" parent="TuXuVGZTP4xam0BgMUwH-30" vertex="1">
          <mxGeometry x="122.0474406991261" y="35.285714285714285" width="68.67605968729565" height="44.82016526960347" as="geometry" />
        </mxCell>
        <mxCell id="6a7d8f32e03d9370-30" value="Web service" style="verticalLabelPosition=bottom;aspect=fixed;html=1;verticalAlign=top;strokeColor=none;shape=mxgraph.citrix.web_service;fillColor=#66B2FF;gradientColor=#0066CC;fontSize=14;" parent="TuXuVGZTP4xam0BgMUwH-30" vertex="1">
          <mxGeometry x="131.21997503121102" y="140" width="50.33707865168539" height="47.94007490636704" as="geometry" />
        </mxCell>
        <mxCell id="6a7d8f32e03d9370-15" value="Web Server" style="verticalLabelPosition=bottom;aspect=fixed;html=1;verticalAlign=top;strokeColor=none;shape=mxgraph.citrix.cache_server;fillColor=#66B2FF;gradientColor=#0066CC;fontSize=14;labelPosition=center;align=center;" parent="TuXuVGZTP4xam0BgMUwH-30" vertex="1">
          <mxGeometry x="133.9925093632959" y="256.75" width="56.729088639200995" height="77.90262172284645" as="geometry" />
        </mxCell>
        <mxCell id="6a7d8f32e03d9370-49" style="edgeStyle=none;rounded=0;html=1;startSize=10;endSize=10;jettySize=auto;orthogonalLoop=1;fontSize=14;endArrow=none;endFill=0;strokeWidth=2;entryX=0.982;entryY=0.455;entryDx=0;entryDy=0;entryPerimeter=0;" parent="TuXuVGZTP4xam0BgMUwH-27" source="6a7d8f32e03d9370-30" target="TuXuVGZTP4xam0BgMUwH-10" edge="1">
          <mxGeometry relative="1" as="geometry" />
        </mxCell>
        <mxCell id="TuXuVGZTP4xam0BgMUwH-26" style="edgeStyle=none;rounded=0;html=1;startSize=10;endSize=10;jettySize=auto;orthogonalLoop=1;fontSize=14;endArrow=none;endFill=0;strokeWidth=2;entryX=1.037;entryY=0.591;entryDx=0;entryDy=0;entryPerimeter=0;" parent="TuXuVGZTP4xam0BgMUwH-27" source="6a7d8f32e03d9370-15" target="TuXuVGZTP4xam0BgMUwH-10" edge="1">
          <mxGeometry relative="1" as="geometry">
            <mxPoint x="193" y="266" as="sourcePoint" />
            <mxPoint x="173" y="501" as="targetPoint" />
          </mxGeometry>
        </mxCell>
        <mxCell id="vf5eU_Ha8vyt0Uo9wD5i-22" value="" style="html=1;shadow=0;dashed=0;align=center;verticalAlign=middle;shape=mxgraph.arrows2.twoWayArrow;dy=0.65;dx=22;rotation=-5;" vertex="1" parent="TuXuVGZTP4xam0BgMUwH-27">
          <mxGeometry x="273" y="335.26" width="100" height="20" as="geometry" />
        </mxCell>
        <mxCell id="vf5eU_Ha8vyt0Uo9wD5i-23" value="" style="html=1;shadow=0;dashed=0;align=center;verticalAlign=middle;shape=mxgraph.arrows2.twoWayArrow;dy=0.65;dx=22;rotation=15;" vertex="1" parent="TuXuVGZTP4xam0BgMUwH-27">
          <mxGeometry x="273" y="430" width="100" height="20" as="geometry" />
        </mxCell>
        <mxCell id="vf5eU_Ha8vyt0Uo9wD5i-26" value="" style="html=1;shadow=0;dashed=0;align=center;verticalAlign=middle;shape=mxgraph.arrows2.twoWayArrow;dy=0.65;dx=22;rotation=90;" vertex="1" parent="TuXuVGZTP4xam0BgMUwH-27">
          <mxGeometry x="62.68" y="440" width="100" height="20" as="geometry" />
        </mxCell>
        <mxCell id="TuXuVGZTP4xam0BgMUwH-28" value="" style="group" parent="1" vertex="1" connectable="0">
          <mxGeometry x="40" y="-1000" width="308" height="680" as="geometry" />
        </mxCell>
        <mxCell id="6a7d8f32e03d9370-57" value="&lt;font style=&quot;font-size: 16px;&quot;&gt;&lt;b&gt;Модули&lt;/b&gt;&lt;/font&gt;" style="whiteSpace=wrap;html=1;fillColor=#FFD470;gradientColor=none;fontSize=14;strokeColor=none;verticalAlign=top;" parent="TuXuVGZTP4xam0BgMUwH-28" vertex="1">
          <mxGeometry width="308" height="680" as="geometry" />
        </mxCell>
        <mxCell id="6a7d8f32e03d9370-25" value="Модуль управления доступом" style="verticalLabelPosition=bottom;aspect=fixed;html=1;verticalAlign=top;strokeColor=none;shape=mxgraph.citrix.proxy_server;fillColor=#66B2FF;gradientColor=#0066CC;fontSize=14;" parent="TuXuVGZTP4xam0BgMUwH-28" vertex="1">
          <mxGeometry x="115.75" y="170" width="76.5" height="90" as="geometry" />
        </mxCell>
        <mxCell id="TuXuVGZTP4xam0BgMUwH-12" value="&lt;font style=&quot;font-size: 14px;&quot;&gt;Модуль распознавания номерных знаков&lt;/font&gt;" style="image;points=[];aspect=fixed;html=1;align=center;shadow=0;dashed=0;image=img/lib/allied_telesis/security/POE_DVS_Camera.svg;labelPosition=center;verticalLabelPosition=bottom;verticalAlign=top;labelBackgroundColor=none;" parent="TuXuVGZTP4xam0BgMUwH-28" vertex="1">
          <mxGeometry x="115.75" y="59.99999999999998" width="51" height="40.2" as="geometry" />
        </mxCell>
        <mxCell id="TuXuVGZTP4xam0BgMUwH-13" value="" style="image;points=[];aspect=fixed;html=1;align=center;shadow=0;dashed=0;image=img/lib/allied_telesis/security/DVS_Surveillance_Monitor.svg;" parent="TuXuVGZTP4xam0BgMUwH-28" vertex="1">
          <mxGeometry x="210" y="40.200000000000024" width="42" height="60" as="geometry" />
        </mxCell>
        <mxCell id="TuXuVGZTP4xam0BgMUwH-16" value="&lt;font style=&quot;font-size: 14px;&quot;&gt;Модуль обработки платежей&lt;/font&gt;" style="shape=mxgraph.signs.travel.currency_exchange;html=1;pointerEvents=1;fillColor=#000000;strokeColor=none;verticalLabelPosition=bottom;verticalAlign=top;align=center;sketch=0;" parent="TuXuVGZTP4xam0BgMUwH-28" vertex="1">
          <mxGeometry x="98.5" y="534" width="99" height="93" as="geometry" />
        </mxCell>
        <mxCell id="TuXuVGZTP4xam0BgMUwH-19" value="&lt;font style=&quot;font-size: 14px;&quot;&gt;Модуль аналитики&lt;/font&gt;" style="verticalLabelPosition=bottom;shadow=0;dashed=0;align=center;html=1;verticalAlign=top;strokeWidth=1;shape=mxgraph.mockup.graphics.lineChart;strokeColor=none;strokeColor2=#666666;strokeColor3=#008cff;strokeColor4=#dddddd;" parent="TuXuVGZTP4xam0BgMUwH-28" vertex="1">
          <mxGeometry x="79" y="360.5" width="150" height="80" as="geometry" />
        </mxCell>
        <mxCell id="6a7d8f32e03d9370-36" style="edgeStyle=none;rounded=0;html=1;startSize=10;endSize=10;jettySize=auto;orthogonalLoop=1;fontSize=14;endArrow=none;endFill=0;strokeWidth=2;exitX=0.507;exitY=0.991;exitDx=0;exitDy=0;exitPerimeter=0;entryX=0.446;entryY=0.091;entryDx=0;entryDy=0;entryPerimeter=0;" parent="1" source="TuXuVGZTP4xam0BgMUwH-6" target="TuXuVGZTP4xam0BgMUwH-10" edge="1">
          <mxGeometry relative="1" as="geometry">
            <mxPoint x="871.7665505226478" y="-155.0000000000009" as="sourcePoint" />
            <mxPoint x="870" y="-750" as="targetPoint" />
          </mxGeometry>
        </mxCell>
        <mxCell id="6a7d8f32e03d9370-32" style="edgeStyle=none;rounded=0;html=1;startSize=10;endSize=10;jettySize=auto;orthogonalLoop=1;fontSize=14;endArrow=none;endFill=0;strokeWidth=2;exitX=0.948;exitY=0.648;exitDx=0;exitDy=0;exitPerimeter=0;" parent="1" source="TuXuVGZTP4xam0BgMUwH-13" target="TuXuVGZTP4xam0BgMUwH-14" edge="1">
          <mxGeometry relative="1" as="geometry">
            <mxPoint x="440" y="-940" as="sourcePoint" />
            <mxPoint x="900" y="-710" as="targetPoint" />
          </mxGeometry>
        </mxCell>
        <mxCell id="6a7d8f32e03d9370-37" style="edgeStyle=none;rounded=0;html=1;startSize=10;endSize=10;jettySize=auto;orthogonalLoop=1;fontSize=14;endArrow=none;endFill=0;strokeWidth=2;entryX=0.531;entryY=-0.103;entryDx=0;entryDy=0;entryPerimeter=0;" parent="1" source="TuXuVGZTP4xam0BgMUwH-9" target="TuXuVGZTP4xam0BgMUwH-10" edge="1">
          <mxGeometry relative="1" as="geometry">
            <mxPoint x="1266.500000000001" y="-180.5177246496296" as="sourcePoint" />
          </mxGeometry>
        </mxCell>
        <mxCell id="6a7d8f32e03d9370-51" style="edgeStyle=none;rounded=0;html=1;startSize=10;endSize=10;jettySize=auto;orthogonalLoop=1;fontSize=14;endArrow=none;endFill=0;strokeWidth=2;entryX=0.538;entryY=0.85;entryDx=0;entryDy=0;entryPerimeter=0;exitX=0.497;exitY=-0.078;exitDx=0;exitDy=0;exitPerimeter=0;" parent="1" source="TuXuVGZTP4xam0BgMUwH-10" target="TuXuVGZTP4xam0BgMUwH-7" edge="1">
          <mxGeometry relative="1" as="geometry" />
        </mxCell>
        <mxCell id="6a7d8f32e03d9370-56" style="edgeStyle=none;rounded=0;html=1;startSize=10;endSize=10;jettySize=auto;orthogonalLoop=1;fontSize=14;endArrow=none;endFill=0;strokeWidth=2;" parent="1" source="TuXuVGZTP4xam0BgMUwH-14" target="6a7d8f32e03d9370-25" edge="1">
          <mxGeometry relative="1" as="geometry">
            <mxPoint x="550" y="-730" as="sourcePoint" />
          </mxGeometry>
        </mxCell>
        <mxCell id="6a7d8f32e03d9370-38" style="edgeStyle=none;rounded=0;html=1;jettySize=auto;orthogonalLoop=1;fontSize=14;endArrow=none;endFill=0;strokeWidth=2;entryX=0.972;entryY=0.988;entryDx=0;entryDy=0;entryPerimeter=0;exitX=0.412;exitY=-0.078;exitDx=0;exitDy=0;exitPerimeter=0;" parent="1" source="TuXuVGZTP4xam0BgMUwH-10" target="TuXuVGZTP4xam0BgMUwH-8" edge="1">
          <mxGeometry relative="1" as="geometry" />
        </mxCell>
        <mxCell id="6a7d8f32e03d9370-24" value="CRM" style="verticalLabelPosition=bottom;aspect=fixed;html=1;verticalAlign=top;strokeColor=none;shape=mxgraph.citrix.hq_enterprise;fillColor=#66B2FF;gradientColor=#0066CC;fontSize=14;" parent="1" vertex="1">
          <mxGeometry x="478" y="-663" width="92" height="88" as="geometry" />
        </mxCell>
        <mxCell id="TuXuVGZTP4xam0BgMUwH-14" value="&lt;font size=&quot;1&quot; style=&quot;&quot;&gt;&lt;b style=&quot;font-size: 16px;&quot;&gt;База данных&lt;/b&gt;&lt;/font&gt;" style="verticalLabelPosition=top;sketch=0;aspect=fixed;html=1;verticalAlign=bottom;strokeColor=none;align=center;outlineConnect=0;shape=mxgraph.citrix.database_server;labelPosition=center;" parent="1" vertex="1">
          <mxGeometry x="490" y="-860" width="80" height="90" as="geometry" />
        </mxCell>
        <mxCell id="TuXuVGZTP4xam0BgMUwH-18" style="edgeStyle=none;rounded=0;html=1;startSize=10;endSize=10;jettySize=auto;orthogonalLoop=1;fontSize=14;endArrow=none;endFill=0;strokeWidth=2;entryX=1;entryY=0;entryDx=0;entryDy=0;entryPerimeter=0;exitX=0.065;exitY=0.5;exitDx=0;exitDy=0;exitPerimeter=0;" parent="1" source="6a7d8f32e03d9370-24" target="TuXuVGZTP4xam0BgMUwH-16" edge="1">
          <mxGeometry relative="1" as="geometry">
            <mxPoint x="504" y="-439" as="sourcePoint" />
            <mxPoint x="286" y="-615" as="targetPoint" />
          </mxGeometry>
        </mxCell>
        <mxCell id="TuXuVGZTP4xam0BgMUwH-20" style="edgeStyle=none;rounded=0;html=1;startSize=10;endSize=10;jettySize=auto;orthogonalLoop=1;fontSize=14;endArrow=none;endFill=0;strokeWidth=2;entryX=1.009;entryY=-0.054;entryDx=0;entryDy=0;entryPerimeter=0;exitX=-0.05;exitY=0.828;exitDx=0;exitDy=0;exitPerimeter=0;" parent="1" source="TuXuVGZTP4xam0BgMUwH-14" target="TuXuVGZTP4xam0BgMUwH-19" edge="1">
          <mxGeometry relative="1" as="geometry">
            <mxPoint x="534" y="-685" as="sourcePoint" />
            <mxPoint x="292" y="-780" as="targetPoint" />
          </mxGeometry>
        </mxCell>
        <mxCell id="TuXuVGZTP4xam0BgMUwH-22" style="edgeStyle=none;rounded=0;html=1;startSize=10;endSize=10;jettySize=auto;orthogonalLoop=1;fontSize=14;endArrow=none;endFill=0;strokeWidth=2;entryX=0.138;entryY=0.192;entryDx=0;entryDy=0;entryPerimeter=0;" parent="1" source="TuXuVGZTP4xam0BgMUwH-14" target="TuXuVGZTP4xam0BgMUwH-10" edge="1">
          <mxGeometry relative="1" as="geometry">
            <mxPoint x="327" y="-941" as="sourcePoint" />
            <mxPoint x="810" y="-849" as="targetPoint" />
          </mxGeometry>
        </mxCell>
        <mxCell id="TuXuVGZTP4xam0BgMUwH-24" style="edgeStyle=none;rounded=0;html=1;startSize=10;endSize=10;jettySize=auto;orthogonalLoop=1;fontSize=14;endArrow=none;endFill=0;strokeWidth=2;exitX=1;exitY=0.5;exitDx=0;exitDy=0;exitPerimeter=0;entryX=0.027;entryY=0.662;entryDx=0;entryDy=0;entryPerimeter=0;" parent="1" source="TuXuVGZTP4xam0BgMUwH-16" target="TuXuVGZTP4xam0BgMUwH-10" edge="1">
          <mxGeometry relative="1" as="geometry">
            <mxPoint x="614" y="-645" as="sourcePoint" />
            <mxPoint x="880" y="-457" as="targetPoint" />
          </mxGeometry>
        </mxCell>
        <mxCell id="TuXuVGZTP4xam0BgMUwH-32" value="&lt;ul&gt;&lt;br/&gt;&lt;li style=&quot;&quot;&gt;&lt;strong&gt;Клиентские устройства&lt;/strong&gt;: Это могут быть мобильные приложения или веб-интерфейсы, которые пользователи будут использовать для взаимодействия с системой.&lt;/li&gt;&lt;br/&gt;&lt;li&gt;&lt;strong&gt;Серверная часть&lt;/strong&gt;: Центральный компонент, который обрабатывает запросы от клиентских устройств и управляет всеми процессами.&lt;/li&gt;&lt;br/&gt;&lt;li&gt;&lt;strong&gt;Модуль распознавания номерных знаков&lt;/strong&gt;: Использует технологии компьютерного зрения для идентификации автомобильных номеров.&lt;/li&gt;&lt;br/&gt;&lt;li&gt;&lt;strong&gt;Модуль управления доступом&lt;/strong&gt;: Решает, разрешать или запрещать доступ на основе данных из базы данных разрешенных автомобилей.&lt;/li&gt;&lt;br/&gt;&lt;li&gt;&lt;strong&gt;Модуль обработки платежей&lt;/strong&gt;: Управляет транзакциями и может интегрироваться с внешними платежными системами.&lt;/li&gt;&lt;br/&gt;&lt;li&gt;&lt;strong&gt;Модуль аналитики&lt;/strong&gt;: Собирает и анализирует данные о парковке и использовании системы.&lt;/li&gt;&lt;br/&gt;&lt;li&gt;&lt;strong&gt;База данных&lt;/strong&gt;: Хранит информацию о зарегистрированных автомобилях, транзакциях и других данных.&lt;/li&gt;&lt;br/&gt;&lt;li&gt;&lt;strong&gt;Облачная инфраструктура&lt;/strong&gt;: Обеспечивает хранение данных и выполнение вычислений.&lt;/li&gt;&lt;br/&gt;&lt;/ul&gt;&lt;div&gt;&lt;br/&gt;&lt;/div&gt;" style="text;html=1;align=left;verticalAlign=middle;resizable=0;points=[];autosize=1;strokeColor=none;fillColor=none;" parent="1" vertex="1">
          <mxGeometry x="330" y="-310" width="990" height="300" as="geometry" />
        </mxCell>
        <mxCell id="vf5eU_Ha8vyt0Uo9wD5i-1" style="edgeStyle=none;rounded=0;html=1;startSize=10;endSize=10;jettySize=auto;orthogonalLoop=1;fontSize=14;endArrow=none;endFill=0;strokeWidth=2;exitX=-0.009;exitY=0.509;exitDx=0;exitDy=0;exitPerimeter=0;" edge="1" parent="1" source="6a7d8f32e03d9370-24" target="TuXuVGZTP4xam0BgMUwH-19">
          <mxGeometry relative="1" as="geometry">
            <mxPoint x="520" y="-420" as="sourcePoint" />
            <mxPoint x="248" y="-409" as="targetPoint" />
          </mxGeometry>
        </mxCell>
        <mxCell id="vf5eU_Ha8vyt0Uo9wD5i-16" value="" style="html=1;shadow=0;dashed=0;align=center;verticalAlign=middle;shape=mxgraph.arrows2.twoWayArrow;dy=0.65;dx=22;rotation=30;" vertex="1" parent="1">
          <mxGeometry x="620" y="-760" width="100" height="20" as="geometry" />
        </mxCell>
        <mxCell id="vf5eU_Ha8vyt0Uo9wD5i-17" value="" style="html=1;shadow=0;dashed=0;align=center;verticalAlign=middle;shape=mxgraph.arrows2.twoWayArrow;dy=0.65;dx=22;rotation=-36;" vertex="1" parent="1">
          <mxGeometry x="360" y="-730" width="100" height="20" as="geometry" />
        </mxCell>
        <mxCell id="vf5eU_Ha8vyt0Uo9wD5i-20" value="" style="html=1;shadow=0;dashed=0;align=center;verticalAlign=middle;shape=mxgraph.arrows2.twoWayArrow;dy=0.65;dx=22;rotation=0;" vertex="1" parent="1">
          <mxGeometry x="360" y="-830" width="100" height="20" as="geometry" />
        </mxCell>
        <mxCell id="vf5eU_Ha8vyt0Uo9wD5i-21" value="" style="html=1;shadow=0;dashed=0;align=center;verticalAlign=middle;shape=mxgraph.arrows2.twoWayArrow;dy=0.65;dx=22;rotation=30;" vertex="1" parent="1">
          <mxGeometry x="360" y="-900" width="100" height="20" as="geometry" />
        </mxCell>
        <mxCell id="vf5eU_Ha8vyt0Uo9wD5i-25" value="" style="html=1;shadow=0;dashed=0;align=center;verticalAlign=middle;shape=mxgraph.arrows2.twoWayArrow;dy=0.65;dx=22;rotation=-15;" vertex="1" parent="1">
          <mxGeometry x="360" y="-460" width="100" height="20" as="geometry" />
        </mxCell>
      </root>
    </mxGraphModel>
  </diagram>
</mxfile>
